<?xml version="1.0" encoding="UTF-8" standalone="no"?>
<svg
   xmlns:dc="http://purl.org/dc/elements/1.1/"
   xmlns:cc="http://creativecommons.org/ns#"
   xmlns:rdf="http://www.w3.org/1999/02/22-rdf-syntax-ns#"
   xmlns:svg="http://www.w3.org/2000/svg"
   xmlns="http://www.w3.org/2000/svg"
   xmlns:sodipodi="http://sodipodi.sourceforge.net/DTD/sodipodi-0.dtd"
   xmlns:inkscape="http://www.inkscape.org/namespaces/inkscape"
   version="1.1"
   id="svg98"
   width="819.20001"
   height="601.59998"
   viewBox="0 0 819.20001 601.59998"
   sodipodi:docname="logo.svg"
   inkscape:version="1.0.1 (3bc2e813f5, 2020-09-07, custom)">
  <metadata
     id="metadata104">
    <rdf:RDF>
      <cc:Work
         rdf:about="">
        <dc:format>image/svg+xml</dc:format>
        <dc:type
           rdf:resource="http://purl.org/dc/dcmitype/StillImage" />
        <dc:title />
      </cc:Work>
    </rdf:RDF>
  </metadata>
  <defs
     id="defs102" />
  <sodipodi:namedview
     pagecolor="#ffffff"
     bordercolor="#666666"
     borderopacity="1"
     objecttolerance="10"
     gridtolerance="10"
     guidetolerance="10"
     inkscape:pageopacity="0"
     inkscape:pageshadow="2"
     inkscape:window-width="1920"
     inkscape:window-height="1024"
     id="namedview100"
     showgrid="false"
     inkscape:zoom="1"
     inkscape:cx="343.30718"
     inkscape:cy="118.87876"
     inkscape:window-x="0"
     inkscape:window-y="28"
     inkscape:window-maximized="1"
     inkscape:current-layer="g106"
     inkscape:document-rotation="0" />
  <g
     inkscape:groupmode="layer"
     inkscape:label="Image"
     id="g106">
    <path
       style="fill:#ffffff;stroke:none;stroke-width:0.32"
       d="m 232.96,54.535998 c -12.43936,1.69344 -17.1184,14.00512 -18.46848,25.143999 -0.888,7.3248 -0.10208,14.72512 -0.424,22.080003 -0.88,20.0944 -0.30752,40.34944 -0.30752,60.47999 v 297.91999 17.92 c 0,14.8736 -0.47488,29.9808 0.61152,44.8 0.50592,6.8992 1.86496,15.072 7.09728,20.1056 4.9936,4.8032 13.68448,4.96 20.1312,4.1216 13.5904,-1.7664 14.72,-14.7008 14.72,-25.8272 0,-26.96 0.32,-53.9744 0.32,-80.95999 V 142.08 c 0,-16.32224 0.0838,-32.66368 -0.3152,-48.960003 -0.19072,-7.77888 0.9296,-16.03552 -0.7808,-23.679999 -2.3232,-10.3824 -12.24448,-16.31136 -22.584,-14.904 m 317.76001,-3.2e-4 c -12.9728,1.71936 -17.5072,13.40896 -19.1584,25.144319 -1.136,8.08992 -0.3392,16.18848 -0.6944,24.320003 -0.8224,18.81984 -0.3072,37.78528 -0.3072,56.63999 v 298.55999 c 0,13.9776 -0.0256,27.968 0.3168,41.92 0.1952,8.016 -0.4352,16.0384 0.6848,24 0.9472,6.7424 2.7776,15.7088 8.9184,19.664 4.304,2.7712 10.4224,2.8384 15.36,2.3616 11.6224,-1.1232 14.768,-11.7344 15.7344,-21.7056 0.8128,-8.4096 0.384,-16.8352 0.5888,-25.28 0.368,-14.912 0.3168,-29.8624 0.3168,-44.8 V 155.51999 c 0,-18.53567 0.5024,-37.17855 -0.3072,-55.679993 -0.3552,-8.12672 0.5056,-16.24352 -0.7392,-24.32 -1.6512,-10.690879 -8.0672,-22.659839 -20.7136,-20.984319 M 313.28,133.25696 c -9.088,1.28736 -15.88864,8.40736 -18.19008,17.14303 -1.03776,3.93888 -0.76448,7.83904 -1.0384,11.84 -0.79136,11.55264 -0.29152,23.28928 -0.29152,34.88 v 205.76 31.04 c 0,6.6272 -0.3968,14.0512 1.41696,20.47999 2.85312,10.112 11.98912,16.8896 22.58304,15.5872 9.12,-1.12 15.2864,-7.8432 17.4464,-16.5472 1.648,-6.62399 1.1136,-13.71199 1.1136,-20.47999 0,-8.7456 0.32,-17.4784 0.32,-26.24 v -205.76 c 0,-9.93504 -0.32,-19.84096 -0.32,-29.76 0,-7.72032 0.5536,-15.68832 -2.2592,-23.03999 C 331.04,140.27072 322.448,131.95872 313.28,133.25696 m 316.16001,0 c -23.4368,3.35808 -19.2,32.68351 -19.2,49.78303 0,4.70048 -0.3136,9.40192 -0.32,14.08 -0.1088,68.48 0.32,136.9856 0.32,205.44 0,10.6848 -0.32,21.3184 -0.32,32 0,6.4672 -0.2848,13.1744 1.168,19.51999 2.464,10.752 10.9664,17.5584 22.192,16.2272 2.752,-0.3232 5.4624,-0.7424 8,-1.9296 14.9504,-7.0016 11.52,-28.56959 11.8432,-41.81759 0.1632,-6.6048 0.3168,-13.2128 0.3168,-19.84 v -205.44 c 0,-9.93504 -0.32,-19.84096 -0.32,-29.76 0,-7.69984 0.5216,-15.70208 -2.2592,-23.03999 -3.232,-8.51488 -11.6032,-16.62976 -21.4208,-15.22304 m -157.44,19.20351 c -20.6784,3.22976 -17.7376,28.99296 -17.92,44.33952 -0.0512,4.15072 -0.32,8.30784 -0.32,12.48 v 183.36 c 0,7.376 0.32,14.7136 0.32,22.08 0,8.1984 -0.2688,16.4064 2.2496,24.32 2.5664,8.0704 10.1536,15.05599 19.1904,13.98719 9.5616,-1.1264 17.312,-7.45599 19.7888,-16.86719 0.9536,-3.6128 0.7872,-7.2064 1.04,-10.88 0.6688,-9.76 0.2912,-19.648 0.2912,-29.44 v -184.32 c 0,-10.63808 0.4352,-21.39712 -0.2912,-32 -0.2912,-4.26304 -0.1632,-8.34752 -1.5232,-12.48 -3.104,-9.42304 -12.784,-16.14784 -22.8256,-14.57952 M 156.8,154.05695 c -8.48352,1.21824 -15.88576,8.03904 -18.32928,16.18304 -1.86688,6.2224 -1.19072,13.10336 -1.19072,19.52 0,9.38656 -0.32,18.75808 -0.32,28.16 v 181.44 c 0,3.5392 0.32,7.0304 0.32,10.56 0,14.72 -1.57696,37.376 17.6,40.7648 2.47808,0.4352 5.50368,0.4256 8,0.1024 21.52096,-2.7968 19.84,-29.8432 19.84,-45.6672 v -10.88 -183.36 c 0,-13.78336 1.62336,-29.1008 -3.336,-42.24 -3.52832,-9.3472 -12.26912,-16.064 -22.584,-14.58304 m 548.48001,76.48 c -2.2016,0.31552 -4.3648,0.8256 -6.4,1.73984 -10.9632,4.92832 -10.512,16.91872 -11.4656,26.9232 -0.5888,6.18368 -0.0544,12.6672 -0.0544,18.88 v 37.12 c 0,14.1024 -1.7312,29.6576 1.104,43.52 2.0832,10.1952 13.0496,18.6944 23.536,17.184 13.6384,-1.9648 18.928,-16.2912 20.6144,-28.064 1.1136,-7.7664 0.4672,-15.8496 0.5056,-23.68 0.0576,-11.6224 0.288,-23.25184 0.003,-34.88 -0.2976,-12.20032 1.1424,-24.75744 -1.2192,-36.8 -2.6624,-13.56864 -11.7856,-24.0688 -26.624,-21.94304 m -624.320009,0.32352 c -15.384,2.40288 -14.08,18.33408 -14.08,30.25952 0,24.41216 -0.60288,48.86688 -0.0048,73.28 0.1824,7.4368 -0.47488,14.9792 0.0336,22.4 0.704,10.2816 8.1024,19.8656 19.4912,18.4672 11.84288,-1.4528 18.715839,-11.3024 19.491199,-22.6272 1.48896,-21.7408 0.6688,-43.7888 0.6688,-65.6 0,-6.94784 -0.32,-13.86848 -0.32,-20.8 0,-6.54208 0.3152,-13.4384 -1.24736,-19.84 -2.72256,-11.15392 -12.793599,-17.29504 -24.032639,-15.53952 M 391.04,237.57695 c -1.9968,0.28672 -3.936,0.84384 -5.76,1.71424 -11.3696,5.42848 -10.1952,16.49184 -11.4272,26.9488 -0.8,6.75584 -0.0928,13.99552 -0.0928,20.8 v 41.28 c 0,8.9056 -1.424,20.7392 3.0432,28.8 4.2912,7.7376 13.9808,8.5632 21.9168,7.5872 1.824,-0.224 3.744,-0.5696 5.44,-1.296 9.95841,-4.2528 9.28001,-16.0416 9.28001,-25.1712 0,-18.2464 0.2176,-36.4816 0,-54.72 -0.112,-9.41824 0.736,-19.12352 -0.4128,-28.48 C 411.68641,244.10783 402.32,235.95743 391.04,237.57695 Z"
       id="path110" />
  </g>
</svg>
